# xmcd
#
# Track frame offsets: 
#        150
#        3846
#        21188
#        44400
#        62625
#        85128
#        100330
#        125043
#        143118
#        163818
#        186843
#        207019
#        232294
#        257269
#        279544
#
# Disc length: 3990 seconds
#
# Revision: 3
# Processed by: cddbd v1.5.2PL0 Copyright (c) Steve Scherf et al.
# Submitted via: ExactAudioCopy v0.95b4
#
DISCID=d00f940f
DTITLE=Flёur - Волшебство
DYEAR=2003
DGENRE=Folk
TTITLE0=Intro
TTITLE1=Пустота
TTITLE2=Почти реально
TTITLE3=Формалин
TTITLE4=Печальный клоун
TTITLE5=Когда ты грустишь
TTITLE6=Баллада о белых крыльях и алых лепестках
TTITLE7=Ремонт
TTITLE8=Медальон
TTITLE9=Я сделаю это
TTITLE10=Никогда
TTITLE11=Струна
TTITLE12=Русская рулетка
TTITLE13=Легион
TTITLE14=Горизонт
EXTD=
EXTT0=
EXTT1=
EXTT2=
EXTT3=
EXTT4=
EXTT5=
EXTT6=
EXTT7=
EXTT8=
EXTT9=
EXTT10=
EXTT11=
EXTT12=
EXTT13=
EXTT14=
PLAYORDER=
